<?xml version="1.0" encoding="utf-8"?>
<svg width="55" height="31" xmlns="http://www.w3.org/2000/svg">
    <defs>
        <style>.cls-1{fill:none;}.cls-2{fill:#419546;}.cls-3{fill:#083266;}</style>
    </defs>
    <title>webcollage</title>
    <g id="Layer_2" data-name="Layer 2">
        <g id="Layer_1-2" data-name="Layer 1">
            <rect class="cls-1" width="55" height="31"/>
            <path class="cls-2"
                  d="M35.48,15.45a3,3,0,1,1,6,0,3,3,0,1,1-6,0Zm4.8,0a1.84,1.84,0,0,0-1.83-2.08c-1.1,0-1.82.79-1.82,2.09a1.84,1.84,0,1,0,3.65,0Z"/>
            <path class="cls-3" d="M47.1,4.5H43.92a.56.56,0,1,1,0-1.12H47.1a.56.56,0,0,1,0,1.12Z"/>
            <path class="cls-3" d="M46.36,6.15H42.15a.57.57,0,0,1,0-1.13h4.21a.57.57,0,0,1,0,1.13Z"/>
            <path class="cls-3" d="M45,7.79H41.1a.56.56,0,1,1,0-1.12H45a.56.56,0,0,1,0,1.12Z"/>
            <path class="cls-3" d="M45.87,11.07H44.36a.56.56,0,0,1,0-1.12h1.51a.56.56,0,1,1,0,1.12Z"/>
            <path class="cls-3" d="M44.55,9.43h-2.4a.56.56,0,1,1,0-1.12h2.4a.56.56,0,1,1,0,1.12Z"/>
            <circle class="cls-3" cx="39.51" cy="7.23" r="0.56"/>
            <circle class="cls-3" cx="47.98" cy="2.61" r="0.56"/>
            <path class="cls-2" d="M45.68,14.88h3.18a.56.56,0,1,1,0,1.12H45.68a.56.56,0,0,1,0-1.12Z"/>
            <path class="cls-2" d="M46.42,13.24h4.2a.56.56,0,1,1,0,1.12h-4.2a.56.56,0,1,1,0-1.12Z"/>
            <path class="cls-2"
                  d="M47.76,11.59h3.92a.56.56,0,0,1,.56.56.57.57,0,0,1-.56.57H47.76a.57.57,0,0,1-.57-.57A.56.56,0,0,1,47.76,11.59Z"/>
            <path class="cls-2" d="M46.91,8.31h1.51a.56.56,0,0,1,0,1.12H46.91a.56.56,0,1,1,0-1.12Z"/>
            <path class="cls-2" d="M48.23,10h2.39a.56.56,0,1,1,0,1.12H48.23a.56.56,0,1,1,0-1.12Z"/>
            <circle class="cls-2" cx="53.27" cy="12.15" r="0.56"/>
            <circle class="cls-2" cx="44.79" cy="16.77" r="0.56"/>
            <path class="cls-2"
                  d="M5.15,14.12c0-.46.5-.71,1.25-.71a2.41,2.41,0,0,1,1.24.38A1.57,1.57,0,0,0,8,14a.62.62,0,0,0,.18,0,.48.48,0,0,0,.46-.47.47.47,0,0,0-.18-.37,3.5,3.5,0,0,0-2.07-.69c-1.27,0-2.36.62-2.36,1.71,0,2.29,3.82,1.21,3.82,2.57,0,.51-.51.82-1.36.82A2.22,2.22,0,0,1,5,17.07a.7.7,0,0,0-.53-.24.52.52,0,0,0-.48.52.54.54,0,0,0,.15.37,3.58,3.58,0,0,0,2.37.84C8,18.56,9,17.81,9,16.71,9,14.33,5.15,15.44,5.15,14.12Z"/>
            <path class="cls-2"
                  d="M14.6,13.13a.57.57,0,0,0-.57-.57.59.59,0,0,0-.56.4l-1.72,4.2L10,13a.68.68,0,0,0-.13-.21.52.52,0,0,0-.42-.18.56.56,0,0,0-.57.57.47.47,0,0,0,0,.24l2.2,5-.5,1.13a.6.6,0,0,0-.05.24.58.58,0,0,0,.58.58.59.59,0,0,0,.54-.39l2.84-6.6h0A.59.59,0,0,0,14.6,13.13Z"/>
            <path class="cls-2"
                  d="M20.37,15.23c0-1.86-.76-2.79-2.38-2.79a2,2,0,0,0-1.93,1.21V13.1a.57.57,0,0,0-.57-.55.58.58,0,0,0-.58.56v4.77a.58.58,0,0,0,1.15,0V15.47c0-1.3.45-2,1.56-2s1.58.6,1.59,1.89v2.53a.58.58,0,0,0,.58.58.57.57,0,0,0,.57-.58Z"/>
            <path class="cls-2"
                  d="M26.71,11.18a.58.58,0,0,0-1.15,0v2.49a2.17,2.17,0,0,0-2.09-1.26c-1.46,0-2.69,1-2.69,3.06s1.25,3.08,2.71,3.07a2.18,2.18,0,0,0,2.08-1.26v.6a.57.57,0,0,0,.57.55.58.58,0,0,0,.58-.58Zm-2.93,6.38a1.84,1.84,0,0,1-1.85-2.08,1.85,1.85,0,1,1,3.67,0A1.84,1.84,0,0,1,23.78,17.56Z"/>
            <path class="cls-2"
                  d="M28,12.53a.58.58,0,0,0-.58.58v4.73a.58.58,0,0,0,1.16,0V13.11A.58.58,0,0,0,28,12.53Z"/>
            <circle class="cls-2" cx="28.01" cy="11.11" r="0.62"/>
            <path class="cls-2"
                  d="M33.92,13.63a2.19,2.19,0,0,0-2.09-1.22,2.64,2.64,0,0,0-2.69,2.93,2.65,2.65,0,0,0,2.71,2.93,2.21,2.21,0,0,0,2.08-1.22v.51c0,1.47-.66,2.05-1.82,2.05A1.89,1.89,0,0,1,30.62,19a.67.67,0,0,0-.51-.29.54.54,0,0,0-.54.53.52.52,0,0,0,.13.34,3,3,0,0,0,2.4,1c1.95,0,3-1,3-3.16V13.06a.57.57,0,0,0-.58-.55.55.55,0,0,0-.57.55Zm-1.79,3.75a1.81,1.81,0,0,1-1.84-2,1.84,1.84,0,1,1,3.65,0A1.81,1.81,0,0,1,32.13,17.38Z"/>
        </g>
    </g>
</svg>